<svg id="visual" viewBox="0 0 900 600" width="900" height="600" xmlns="http://www.w3.org/2000/svg" xmlns:xlink="http://www.w3.org/1999/xlink" version="1.1"><g stroke-width="1" stroke-linejoin="bevel"><path d="M473 307L386 333L480 418Z" fill="#bfa399" stroke="#bfa399"></path><path d="M386 333L393 409L480 418Z" fill="#181e2b" stroke="#181e2b"></path><path d="M393 409L432 463L480 418Z" fill="#584958" stroke="#584958"></path><path d="M386 333L335 415L393 409Z" fill="#bfa399" stroke="#bfa399"></path><path d="M393 409L335 415L432 463Z" fill="#997c7e" stroke="#997c7e"></path><path d="M432 463L506 474L480 418Z" fill="#00101c" stroke="#00101c"></path><path d="M480 418L581 401L473 307Z" fill="#00101c" stroke="#00101c"></path><path d="M506 474L581 401L480 418Z" fill="#846a72" stroke="#846a72"></path><path d="M539 175L382 217L473 307Z" fill="#d0b8a8" stroke="#d0b8a8"></path><path d="M473 307L382 217L386 333Z" fill="#d0b8a8" stroke="#d0b8a8"></path><path d="M386 333L287 304L335 415Z" fill="#423a4a" stroke="#423a4a"></path><path d="M382 217L287 304L386 333Z" fill="#d0b8a8" stroke="#d0b8a8"></path><path d="M581 401L612 337L473 307Z" fill="#181e2b" stroke="#181e2b"></path><path d="M506 474L597 471L581 401Z" fill="#846a72" stroke="#846a72"></path><path d="M581 401L732 439L612 337Z" fill="#423a4a" stroke="#423a4a"></path><path d="M229 404L274 485L335 415Z" fill="#584958" stroke="#584958"></path><path d="M335 415L274 485L432 463Z" fill="#997c7e" stroke="#997c7e"></path><path d="M432 463L470 600L506 474Z" fill="#d0b8a8" stroke="#d0b8a8"></path><path d="M506 474L562 600L597 471Z" fill="#bfa399" stroke="#bfa399"></path><path d="M618 214L539 175L473 307Z" fill="#423a4a" stroke="#423a4a"></path><path d="M287 304L229 404L335 415Z" fill="#bfa399" stroke="#bfa399"></path><path d="M612 337L618 214L473 307Z" fill="#ad8f8b" stroke="#ad8f8b"></path><path d="M334 89L286 188L382 217Z" fill="#997c7e" stroke="#997c7e"></path><path d="M382 217L286 188L287 304Z" fill="#997c7e" stroke="#997c7e"></path><path d="M287 304L186 276L229 404Z" fill="#bfa399" stroke="#bfa399"></path><path d="M363 600L470 600L432 463Z" fill="#423a4a" stroke="#423a4a"></path><path d="M539 175L411 121L382 217Z" fill="#846a72" stroke="#846a72"></path><path d="M274 485L363 600L432 463Z" fill="#d0b8a8" stroke="#d0b8a8"></path><path d="M274 485L336 600L363 600Z" fill="#846a72" stroke="#846a72"></path><path d="M198 600L336 600L274 485Z" fill="#846a72" stroke="#846a72"></path><path d="M470 600L562 600L506 474Z" fill="#181e2b" stroke="#181e2b"></path><path d="M286 188L186 276L287 304Z" fill="#bfa399" stroke="#bfa399"></path><path d="M635 135L523 100L539 175Z" fill="#584958" stroke="#584958"></path><path d="M539 175L523 100L411 121Z" fill="#181e2b" stroke="#181e2b"></path><path d="M612 337L717 264L618 214Z" fill="#ad8f8b" stroke="#ad8f8b"></path><path d="M618 214L635 135L539 175Z" fill="#997c7e" stroke="#997c7e"></path><path d="M732 439L717 264L612 337Z" fill="#00101c" stroke="#00101c"></path><path d="M732 439L581 401L597 471Z" fill="#ad8f8b" stroke="#ad8f8b"></path><path d="M411 121L334 89L382 217Z" fill="#00101c" stroke="#00101c"></path><path d="M78 230L126 298L186 276Z" fill="#bfa399" stroke="#bfa399"></path><path d="M430 0L334 89L411 121Z" fill="#846a72" stroke="#846a72"></path><path d="M562 600L696 520L597 471Z" fill="#181e2b" stroke="#181e2b"></path><path d="M696 520L732 439L597 471Z" fill="#2c2c3b" stroke="#2c2c3b"></path><path d="M717 264L690 197L618 214Z" fill="#6e5965" stroke="#6e5965"></path><path d="M690 197L635 135L618 214Z" fill="#997c7e" stroke="#997c7e"></path><path d="M107 409L182 529L229 404Z" fill="#2c2c3b" stroke="#2c2c3b"></path><path d="M229 404L182 529L274 485Z" fill="#423a4a" stroke="#423a4a"></path><path d="M164 165L186 276L286 188Z" fill="#d0b8a8" stroke="#d0b8a8"></path><path d="M186 276L126 298L229 404Z" fill="#997c7e" stroke="#997c7e"></path><path d="M126 298L107 409L229 404Z" fill="#584958" stroke="#584958"></path><path d="M182 529L198 600L274 485Z" fill="#181e2b" stroke="#181e2b"></path><path d="M111 518L198 600L182 529Z" fill="#00101c" stroke="#00101c"></path><path d="M183 131L164 165L286 188Z" fill="#181e2b" stroke="#181e2b"></path><path d="M831 486L788 382L732 439Z" fill="#ad8f8b" stroke="#ad8f8b"></path><path d="M732 439L788 382L717 264Z" fill="#00101c" stroke="#00101c"></path><path d="M717 264L776 172L690 197Z" fill="#d0b8a8" stroke="#d0b8a8"></path><path d="M334 89L183 131L286 188Z" fill="#997c7e" stroke="#997c7e"></path><path d="M562 600L704 600L696 520Z" fill="#181e2b" stroke="#181e2b"></path><path d="M696 520L831 486L732 439Z" fill="#846a72" stroke="#846a72"></path><path d="M788 382L790 283L717 264Z" fill="#997c7e" stroke="#997c7e"></path><path d="M690 197L681 81L635 135Z" fill="#846a72" stroke="#846a72"></path><path d="M526 0L430 0L523 100Z" fill="#6e5965" stroke="#6e5965"></path><path d="M523 100L430 0L411 121Z" fill="#00101c" stroke="#00101c"></path><path d="M334 89L227 0L183 131Z" fill="#ad8f8b" stroke="#ad8f8b"></path><path d="M107 409L111 518L182 529Z" fill="#6e5965" stroke="#6e5965"></path><path d="M778 132L681 81L690 197Z" fill="#997c7e" stroke="#997c7e"></path><path d="M635 135L601 0L523 100Z" fill="#997c7e" stroke="#997c7e"></path><path d="M601 0L526 0L523 100Z" fill="#2c2c3b" stroke="#2c2c3b"></path><path d="M790 283L776 172L717 264Z" fill="#6e5965" stroke="#6e5965"></path><path d="M87 128L78 230L164 165Z" fill="#997c7e" stroke="#997c7e"></path><path d="M164 165L78 230L186 276Z" fill="#d0b8a8" stroke="#d0b8a8"></path><path d="M126 298L0 367L107 409Z" fill="#ad8f8b" stroke="#ad8f8b"></path><path d="M107 409L0 502L111 518Z" fill="#181e2b" stroke="#181e2b"></path><path d="M430 0L285 0L334 89Z" fill="#bfa399" stroke="#bfa399"></path><path d="M183 131L87 128L164 165Z" fill="#bfa399" stroke="#bfa399"></path><path d="M717 0L601 0L681 81Z" fill="#997c7e" stroke="#997c7e"></path><path d="M681 81L601 0L635 135Z" fill="#2c2c3b" stroke="#2c2c3b"></path><path d="M796 600L831 486L696 520Z" fill="#997c7e" stroke="#997c7e"></path><path d="M788 382L900 304L790 283Z" fill="#bfa399" stroke="#bfa399"></path><path d="M900 101L778 132L776 172Z" fill="#d0b8a8" stroke="#d0b8a8"></path><path d="M900 220L776 172L790 283Z" fill="#bfa399" stroke="#bfa399"></path><path d="M776 172L778 132L690 197Z" fill="#00101c" stroke="#00101c"></path><path d="M285 0L227 0L334 89Z" fill="#2c2c3b" stroke="#2c2c3b"></path><path d="M704 600L796 600L696 520Z" fill="#181e2b" stroke="#181e2b"></path><path d="M134 0L87 128L183 131Z" fill="#ad8f8b" stroke="#ad8f8b"></path><path d="M0 323L126 298L78 230Z" fill="#846a72" stroke="#846a72"></path><path d="M0 323L0 367L126 298Z" fill="#997c7e" stroke="#997c7e"></path><path d="M0 182L0 323L78 230Z" fill="#181e2b" stroke="#181e2b"></path><path d="M0 502L62 600L111 518Z" fill="#ad8f8b" stroke="#ad8f8b"></path><path d="M111 518L62 600L198 600Z" fill="#6e5965" stroke="#6e5965"></path><path d="M778 132L717 0L681 81Z" fill="#6e5965" stroke="#6e5965"></path><path d="M900 527L900 425L831 486Z" fill="#584958" stroke="#584958"></path><path d="M831 486L900 425L788 382Z" fill="#423a4a" stroke="#423a4a"></path><path d="M900 425L900 304L788 382Z" fill="#2c2c3b" stroke="#2c2c3b"></path><path d="M778 132L801 0L717 0Z" fill="#846a72" stroke="#846a72"></path><path d="M0 367L0 502L107 409Z" fill="#00101c" stroke="#00101c"></path><path d="M227 0L134 0L183 131Z" fill="#6e5965" stroke="#6e5965"></path><path d="M87 128L0 182L78 230Z" fill="#997c7e" stroke="#997c7e"></path><path d="M0 105L0 182L87 128Z" fill="#584958" stroke="#584958"></path><path d="M900 304L900 220L790 283Z" fill="#d0b8a8" stroke="#d0b8a8"></path><path d="M796 600L900 527L831 486Z" fill="#2c2c3b" stroke="#2c2c3b"></path><path d="M0 502L0 600L62 600Z" fill="#423a4a" stroke="#423a4a"></path><path d="M900 101L801 0L778 132Z" fill="#d0b8a8" stroke="#d0b8a8"></path><path d="M0 0L0 105L87 128Z" fill="#d0b8a8" stroke="#d0b8a8"></path><path d="M796 600L900 600L900 527Z" fill="#6e5965" stroke="#6e5965"></path><path d="M900 220L900 101L776 172Z" fill="#2c2c3b" stroke="#2c2c3b"></path><path d="M134 0L0 0L87 128Z" fill="#d0b8a8" stroke="#d0b8a8"></path><path d="M900 101L900 0L801 0Z" fill="#d0b8a8" stroke="#d0b8a8"></path></g></svg>